# xmcd
#
# Track frame offsets:
#	150
#	26950
#	44232
#	73805
#	89340
#	102645
#	134575
#	147527
#	163122
#	181605
#	197880
#	222070
#	238825
#	253785
#	272540
#
# Disc length: 3803
#
# Revision: 2
# Processed by: cddbd v1.5.1PL0 Copyright (c) Steve Scherf et al.
# Submitted via: CDmax 2.0
# Normalized: r1:DSETVAR1,TDELIM( - )
#
DISCID=f30ed90f
DTITLE=Various Artist - Bad Ass Ladies of the Blues
DYEAR=2003
DGENRE=Blues
TTITLE0=Lady Bianca - Easy Lovin'
TTITLE1=Shemekia Copeland - My Kind of Guy
TTITLE2=Lady Bianca - Can You Slip Away Again Tonight
TTITLE3=Lady Bianca - Lookin' At My Man
TTITLE4=Brenda Boykin and Johnny Nocturne Band - No! I Ain't Gonna Let You Go
TTITLE5=Shemekia Copeland - It Don't Hurt No More
TTITLE6=Deanna Bogart - My Blue Mood
TTITLE7=Marcia Ball - Blue House
TTITLE8=Shemekia Copeland - Ghetto Child
TTITLE9=Shemekia Copeland - Has Anybody Seen My Man
TTITLE10=Lani Groves - It's a man's, man's world
TTITLE11=Shemekia Copeland - Big Lovin' Woman
TTITLE12=Irma Thomas - I'll Take Care Of You
TTITLE13=Lady Bianca - Blues Fonk
TTITLE14=Toni Lynn Washington - Don't Let It End
EXTD=
EXTT0=
EXTT1=
EXTT2=
EXTT3=
EXTT4=
EXTT5=
EXTT6=
EXTT7=
EXTT8=
EXTT9=
EXTT10=
EXTT11=
EXTT12=
EXTT13=
EXTT14=
PLAYORDER=
